<svg width="21" height="21" viewBox="0 0 21 21" fill="none" xmlns="http://www.w3.org/2000/svg">
<path fill-rule="evenodd" clip-rule="evenodd" d="M20.4933 14.2409C20.4455 15.2936 20.2781 16.0123 20.0337 16.6415C19.52 17.9699 18.4699 19.02 17.1415 19.5337C16.5126 19.7781 15.7936 19.9452 14.7411 19.9933C13.6866 20.0414 13.3497 20.053 10.664 20.053C7.97799 20.053 7.64136 20.0414 6.58652 19.9933C5.53405 19.9452 4.81506 19.7781 4.18621 19.5337C3.52608 19.2854 2.9285 18.8962 2.43445 18.3929C1.93148 17.8992 1.54228 17.3013 1.29395 16.6415C1.04955 16.0126 0.882158 15.2936 0.83433 14.2411C0.785714 13.1863 0.774414 12.8494 0.774414 10.1637C0.774414 7.47799 0.785714 7.1411 0.834067 6.08652C0.881895 5.03379 1.04903 4.31506 1.29342 3.68594C1.54176 3.02608 1.93121 2.42824 2.43445 1.93445C2.92824 1.43121 3.52608 1.04202 4.18594 0.793686C4.81506 0.549292 5.53379 0.382158 6.58652 0.334067C7.6411 0.285977 7.97799 0.274414 10.6637 0.274414C13.3494 0.274414 13.6863 0.285977 14.7409 0.33433C15.7936 0.382158 16.5123 0.549292 17.1415 0.793423C17.8013 1.04176 18.3992 1.43121 18.8932 1.93445C19.3962 2.4285 19.7856 3.02608 20.0337 3.68594C20.2784 4.31506 20.4455 5.03379 20.4936 6.08652C20.5417 7.1411 20.553 7.47799 20.553 10.1637C20.553 12.8494 20.5417 13.1863 20.4933 14.2409ZM17.6331 3.19427C17.9616 3.51329 18.2144 3.90196 18.3729 4.33135C18.5085 4.67981 18.6696 5.20355 18.7135 6.16773C18.761 7.21047 18.771 7.52319 18.771 10.164C18.771 12.8045 18.761 13.1172 18.7135 14.1602C18.6693 15.1244 18.5082 15.6478 18.3729 15.9963C18.0402 16.8588 17.3585 17.5405 16.496 17.8731C16.1476 18.0087 15.6238 18.1698 14.6597 18.2137C13.6172 18.2613 13.3045 18.2713 10.6634 18.2713C8.02267 18.2713 7.71021 18.2613 6.66746 18.2137C5.70329 18.1698 5.17955 18.0087 4.83109 17.8731C4.40143 17.7147 4.01303 17.4619 3.694 17.1334C3.36552 16.8144 3.11298 16.426 2.95425 15.9963C2.81891 15.6478 2.65782 15.1244 2.61394 14.1602C2.56637 13.1172 2.55613 12.8045 2.55613 10.164C2.55613 7.52319 2.56637 7.21047 2.61394 6.16773C2.65782 5.20355 2.81891 4.67981 2.95425 4.33135C3.11298 3.90169 3.36578 3.51329 3.69427 3.19427C4.01303 2.86578 4.40169 2.61298 4.83135 2.45451C5.17955 2.31918 5.70329 2.15809 6.66746 2.11394C7.71021 2.06637 8.02293 2.05639 10.6637 2.05639C13.3042 2.05639 13.6169 2.06664 14.6599 2.1142C15.6241 2.15809 16.1476 2.31918 16.496 2.45451C16.9257 2.61298 17.3141 2.86578 17.6331 3.19427Z" fill="#F07D00"/>
<path fill-rule="evenodd" clip-rule="evenodd" d="M10.6637 15.2418C7.85895 15.2418 5.5853 12.9684 5.5853 10.1637C5.5853 7.35895 7.85895 5.08556 10.6637 5.08556C13.4682 5.08556 15.7418 7.35895 15.7418 10.1637C15.7418 12.9684 13.4682 15.2418 10.6637 15.2418ZM10.6637 13.4601C12.4843 13.4601 13.9601 11.9843 13.9601 10.1637C13.9601 8.3431 12.4843 6.86727 10.6637 6.86727C8.8431 6.86727 7.36727 8.3431 7.36727 10.1637C7.36727 11.9843 8.8431 13.4601 10.6637 13.4601Z" fill="#F07D00"/>
<path d="M15.9426 6.07155C15.2872 6.07155 14.7559 5.54019 14.7559 4.88479C14.7559 4.22939 15.2872 3.69803 15.9426 3.69803C16.598 3.69803 17.1294 4.22939 17.1294 4.88479C17.1291 5.54019 16.598 6.07155 15.9426 6.07155Z" fill="#F07D00"/>
</svg>
