<svg width="46" height="59" viewBox="0 0 46 59" fill="none" xmlns="http://www.w3.org/2000/svg">
<path d="M34.3961 45.7883C38.4073 42.9888 41.1318 38.7518 42.3427 34.1365C43.5536 29.5211 43.705 23.7709 42.04 19.4582C40.4507 15.1455 38.1802 11.5138 34.6232 8.94127C31.0661 6.36879 26.9036 5.00688 22.2113 5.38519C18.0488 5.68784 13.2052 7.88201 10.3293 10.9841C7.45334 14.0862 5.71265 18.3989 5.48561 22.8629C5.18288 27.327 6.39379 31.9423 8.66425 35.8767C10.859 39.8111 14.2647 43.1402 18.2759 45.0317L19.2597 45.4857L19.184 46.4693C19.0327 49.7227 18.957 52.9761 18.7299 56.2296C18.7299 56.2296 22.9681 56.0783 25.0872 56.0783C27.5847 56.0026 30.0822 56.0026 32.5797 56.0026C30.0822 56.4566 27.6604 56.8349 25.1629 57.2888C22.6654 57.6671 20.1679 58.0454 17.7461 58.4238L16.6865 58.5751L16.6109 57.3645C16.3838 54.1111 16.1568 47.6042 16.1568 47.6042C16.1568 47.6042 16.0811 47.6042 16.0054 47.5285C6.84788 43.5185 0.566277 33.3799 0.869005 22.5603C1.02037 17.037 3.13946 11.4381 6.84788 7.35238C10.5563 3.34234 15.854 0.921176 21.1518 0.769853C23.8006 0.694192 26.4495 1.14816 28.8713 2.0561C31.2932 2.96403 33.6393 4.25027 35.7584 5.83916C39.9209 9.09259 43.0239 13.7836 44.5375 18.8529C46.0511 23.9979 45.8998 29.5968 44.0834 34.5148C42.3427 39.5841 38.7857 43.7455 34.3961 45.7883Z" fill="#FA9401"/>
</svg>
