<svg width="58" height="61" viewBox="0 0 58 61" fill="none" xmlns="http://www.w3.org/2000/svg">
<path d="M57.6839 28.998C56.7001 25.3662 56.246 23.4747 55.6405 20.5239C55.0351 20.5996 49.586 17.1191 50.2671 11.2932C47.5426 8.94771 46.256 7.58581 43.5314 5.01333C43.2287 5.61862 40.5798 6.60221 38.0823 5.61862C35.5848 4.63502 33.4657 2.89481 32.9359 0.322327C28.5464 0.095343 26.6543 -0.0559795 22.4918 0.0196817C23.0216 1.38158 22.9459 2.21386 22.5675 3.42444C22.1891 4.71068 20.8268 5.99692 19.4646 6.60221C15.9075 8.11544 11.5179 5.92126 10.6098 5.24031C7.96089 8.49375 5.53907 11.3689 2.8902 15.1519C5.23634 16.2869 6.44725 20.2969 6.44725 22.4911C6.44725 25.8202 3.94975 29.9059 0.241333 30.2085C1.67929 36.0345 2.51179 38.153 4.40384 44.3572C13.0316 44.1302 15.6805 51.1667 14.6209 55.782C18.3293 57.2953 21.8107 59.1111 25.2921 60.4731V52.3773C14.9993 48.1403 8.3393 35.8075 10.0043 24.307C10.9882 17.5731 14.7723 11.8228 20.2971 8.72073C25.4434 5.76994 31.4223 5.39163 37.3255 7.58581C37.6282 7.66147 37.9309 7.81279 38.158 7.88846C48.0723 11.9742 54.4296 22.6424 53.2944 33.689C52.5376 41.0281 48.7535 47.081 42.3205 50.7127L41.1853 59.0355C43.3044 58.1275 45.2721 56.9926 47.0885 55.5551C46.256 52.6043 51.1753 46.7784 53.9755 47.3836C55.1864 43.9789 55.7919 42.39 57.0028 39.2122C54.581 38.9852 54.808 29.3763 57.6839 28.998Z" fill="white"/>
</svg>
